<?xml version="1.0" encoding="UTF-8" standalone="no"?>
<svg
   class="svg-icon"
   style="width: 1em; height: 1em;vertical-align: middle;fill: currentColor;overflow: hidden;"
   viewBox="0 0 1024 1024"
   version="1.1"
   id="svg6"
   sodipodi:docname="ocr-orange.svg"
   inkscape:version="1.2.2 (b0a8486541, 2022-12-01)"
   xmlns:inkscape="http://www.inkscape.org/namespaces/inkscape"
   xmlns:sodipodi="http://sodipodi.sourceforge.net/DTD/sodipodi-0.dtd"
   xmlns="http://www.w3.org/2000/svg"
   xmlns:svg="http://www.w3.org/2000/svg">
  <defs
     id="defs10" />
  <sodipodi:namedview
     id="namedview8"
     pagecolor="#ffffff"
     bordercolor="#000000"
     borderopacity="0.25"
     inkscape:showpageshadow="2"
     inkscape:pageopacity="0.0"
     inkscape:pagecheckerboard="0"
     inkscape:deskcolor="#d1d1d1"
     showgrid="false"
     inkscape:zoom="1.0029297"
     inkscape:cx="511.50146"
     inkscape:cy="511.50146"
     inkscape:window-width="2560"
     inkscape:window-height="1416"
     inkscape:window-x="0"
     inkscape:window-y="24"
     inkscape:window-maximized="1"
     inkscape:current-layer="svg6" />
  <path
     d="M888.7296 65.5616l-42.81856-15.488a63.616 63.616 0 0 0-125.62944 13.952c0 35.2 28.544 63.744 63.744 63.744a63.29344 63.29344 0 0 0 42.88-16.83456l40.192 14.65856c27.264 9.856 50.74944 46.78144 50.74944 79.03744v566.72256c0 32.18944-23.48544 68.736-50.816 78.336l-36.224 12.8a63.16544 63.16544 0 0 0-46.90944-20.992 63.744 63.744 0 1 0 0.06144 127.488 63.55456 63.55456 0 0 0 60.16-43.52l43.97056-15.55456c52.608-18.432 93.44-79.232 93.44-138.42944V204.75904c0-59.06944-40.576-120.12544-92.86656-139.008l0.06656-0.18944zM210.5856 841.3696a63.42144 63.42144 0 0 0-49.34656 23.808l-45.88544-15.81056c-26.94656-9.472-51.328-42.752-51.328-71.296V197.71904c0-28.672 24.38144-62.336 51.328-71.99744l49.08544-17.60256a63.744 63.744 0 1 0 46.08-107.96544 63.42144 63.42144 0 0 0-60.73344 45.568l-56.064 19.968C41.7536 84.3776 0.34304 142.3616 0.34304 197.59104v580.352c0 55.36256 41.728 113.09056 93.952 131.456l57.02656 19.84a63.93856 63.93856 0 0 0 122.88-24.32 63.616 63.616 0 0 0-63.616-63.744v0.19456z"
     fill="#FF6A00"
     id="path2" />
  <path
     d="M403.7376 541.8496l82.176-194.11456 86.97344 194.11456H403.7376z m266.94144 218.368l113.408 0.384-252.98944-561.408-93.44 0.95744-237.63456 560.45056 111.744-1.34656 48.896-115.456h257.92l52.16256 116.41856h-0.06656z"
     fill="#FF6A00"
     id="path4" />
  <path
     style="fill:#000000;stroke-width:0.997079"
     d="m 201.69351,758.44348 c 0.72033,-2.53382 235.83723,-556.68049 236.45341,-557.29666 0.29626,-0.29626 21.29691,-0.73901 46.66811,-0.98389 l 46.12947,-0.44524 125.63194,278.95649 c 69.09756,153.42607 125.77701,279.55095 125.95431,280.27748 0.26465,1.08441 -9.02053,1.31069 -51.8481,1.26352 -28.69376,-0.0316 -53.92636,-0.36942 -56.07245,-0.75069 l -3.90198,-0.69323 -25.67726,-57.32916 -25.67726,-57.32915 -129.54238,-0.25298 -129.54238,-0.25297 -1.02028,2.24713 c -0.56114,1.23593 -11.45091,26.92484 -24.19947,57.08647 -12.74856,30.16164 -23.46718,55.12102 -23.81916,55.46528 -0.35198,0.34427 -25.24791,0.86721 -55.32428,1.16207 -50.70005,0.49708 -54.64993,0.41515 -54.21224,-1.12447 z M 573.01645,540.66602 c -6.49753,-15.6561 -86.45256,-192.31076 -87.05559,-192.34284 -0.7927,-0.0422 -82.14392,190.84096 -82.14392,192.74311 0,0.46534 38.18627,0.84608 84.85838,0.84608 67.49786,0 84.75257,-0.25499 84.34113,-1.24635 z"
     id="path185" />
  <path
     style="fill:#000000;stroke-width:0.997079"
     d="m 775.22882,968.03217 c -25.13497,-3.88466 -47.07966,-23.9331 -52.78837,-48.22691 -1.94693,-8.28527 -1.94651,-20.63717 9.8e-4,-28.90016 2.71857,-11.53466 7.75379,-20.37475 16.75654,-29.41867 13.84687,-13.91017 25.66274,-18.94108 44.50602,-18.9496 9.41031,-0.004 12.77262,0.42272 18.75085,2.38116 8.70856,2.85289 17.4297,7.9925 23.60053,13.90848 l 4.51639,4.32987 20.56501,-7.25817 c 23.41649,-8.26457 29.43171,-11.52762 39.3448,-21.34316 11.41336,-11.30104 19.77185,-25.47332 25.03188,-42.44292 l 2.29717,-7.41102 0.2941,-291.64557 c 0.20928,-207.54003 -0.021,-293.8668 -0.79847,-299.34794 -3.49337,-24.62755 -19.64142,-50.50772 -39.40157,-63.14814 -3.39554,-2.17209 -15.11848,-7.11369 -28.31144,-11.93417 l -22.51632,-8.22708 -4.48685,3.40634 c -19.66864,14.93208 -44.71553,17.40144 -66.80429,6.5862 -10.50618,-5.14411 -23.03775,-17.70223 -28.22983,-28.289641 -17.91625,-36.53382 2.13983,-78.997395 42.12096,-89.1802904 8.95996,-2.28203496 25.14843,-1.5816716 33.96866,1.4695893 13.1049,4.5334959 26.30837,14.8203861 33.43649,26.0505411 1.5559,2.451268 4.21666,7.995619 5.9128,12.320779 l 3.08389,7.863927 22.87229,8.341262 c 12.57976,4.587694 26.64878,10.212048 31.2645,12.498565 37.78208,18.71634 67.82968,59.688878 78.11243,106.513138 l 2.2991,10.46933 v 299.6222 299.6222 l -2.30795,10.46933 c -3.39775,15.4129 -6.41463,23.82498 -14.12473,39.38461 -14.77431,29.81581 -37.24452,53.12252 -63.83217,66.20846 -5.20974,2.56414 -20.01636,8.38355 -32.9036,12.93203 l -23.43136,8.26997 -3.87419,8.14287 c -7.03669,14.78991 -23.01775,28.14094 -39.49874,32.99836 -5.62604,1.65817 -20.09149,2.75861 -25.42551,1.93423 z"
     id="path187" />
  <path
     style="fill:#000000;stroke-width:0.997079"
     d="m 195.42746,966.15835 c -3.01616,-0.82218 -9.24815,-3.34003 -13.84886,-5.59521 -10.22366,-5.01145 -20.77764,-14.99571 -26.60234,-25.16628 l -3.91881,-6.84266 -31.90652,-11.14115 C 99.633595,910.59796 83.6808,904.38771 78.066875,901.41945 39.953546,881.26777 9.5195238,839.03317 2.5478071,796.61841 1.0583317,787.55669 0.94250226,760.33787 1.2135681,483.08471 L 1.510403,179.4742 4.1945009,169.50341 C 11.976335,140.59574 25.803433,117.22034 47.675511,95.996615 58.121421,85.86035 73.111263,75.268428 83.944546,70.368673 c 3.4601,-1.564959 19.863824,-7.678197 36.452724,-13.584972 17.26812,-6.148621 30.16164,-11.261174 30.16164,-11.959723 0,-0.671073 1.87776,-4.971784 4.1728,-9.557137 13.20355,-26.3798772 44.81535,-40.3656153 72.70914,-32.1680819 15.93069,4.6817699 32.22906,18.1406139 39.11162,32.2975409 5.52726,11.369167 6.96638,18.423727 6.40326,31.389018 -0.73896,17.014464 -6.36167,29.854077 -18.30297,41.795382 -7.20327,7.20327 -14.48543,11.75113 -24.49214,15.29585 -6.24186,2.21108 -9.06669,2.60255 -19.27844,2.67157 -16.74907,0.11324 -26.42149,-3.13525 -39.74784,-13.34935 -3.59922,-2.75865 -6.96944,-5.01571 -7.48939,-5.01571 -2.26008,0 -51.81688,18.27918 -56.89565,20.98613 -18.382359,9.7977 -35.523133,32.08467 -40.920778,53.20647 -2.000637,7.82879 -2.015366,10.07862 -2.000736,305.60467 0.01626,328.58017 -0.499359,302.78896 6.349795,317.61306 8.545395,18.49539 23.232156,34.13323 39.002559,41.52827 3.29036,1.54291 16.30715,6.35459 28.9262,10.69262 l 22.94373,7.88732 7.14744,-6.69523 c 19.42298,-18.19413 46.81448,-22.13624 71.10142,-10.23272 14.87977,7.29286 28.14354,23.90925 32.42485,40.6207 2.02285,7.89584 1.99366,22.63488 -0.0606,30.59062 -5.30949,20.5629 -22.0516,38.29492 -42.33507,44.8382 -8.5799,2.7678 -26.11201,3.45831 -33.90068,1.33518 z"
     id="path189" />
</svg>
